Patient4_TMGait_0pt3_01_right_03_EMG.mot
version=1
nRows=13
nColumns=33
inDegrees=no
endheader
time	1LAddLong	2LGlutMax	3LGlutMed	4LIliopsoas	5LSemiMemb	6LBicFemLong	7LRecFem	8LVastMed	9LVastLat	10LGasMed	11LTibAnt	12lTibPost	13LPeroneusLong	14LSol	15LExtDigLong	16LFlexDigLong	17RAddLong	18RGlutMax	19RGlutMed	20RIliopsoas	21RSemiMemb	22RBicFemLong	23RRecFem	24RVastMed	25RVastLat	26RGasMed	27RTibAnt	28RTibPost	29RPeroneusLong	30RSol	31RExtDigLong	32RFlexDigLong
5.98	0.00824	-0.03891	-0.17075	0.001831	-0.036926	-0.19363	0.006866	-0.005646	0.10208	-0.019989	0.00946	0.020599	0.15732	0.044861	0.054932	-0.15671	-0.006561	0.052338	0.13886	-0.010071	0.004425	-0.027008	0.028534	-0.05188	-0.006866	-0.009003	0.097351	0.000458	0.10712	-0.092773	-0.000305	0.001831
5.981	0.001221	-0.029602	-0.083008	-0.023804	-0.047302	0.054626	-0.023804	-0.008087	0.024109	0.23712	0.029144	0.053253	0.013428	0.28137	0.16556	-0.051117	-0.011749	0.082092	0.28732	-0.034485	0.001221	-0.010986	0.02182	-0.033264	-0.014343	-0.010529	0.061188	-0.000763	-0.13107	-0.080414	0.001373	0.006409
5.982	0.006866	-0.037231	-0.025482	-0.007172	-0.054169	0.23285	-0.038452	-0.002289	0.001068	0.4303	-0.006256	0.021667	0.069427	0.41794	0.089722	0.025635	-0.005798	0.094147	0.017548	-0.013885	0.006104	-0.019379	0.037384	-0.039673	-0.032196	-0.00351	0.022125	-0.001526	-0.061951	-0.068665	0.001373	-0.000305
5.983	0.007477	-0.014648	-0.00473	0.000153	-0.082245	0.22583	-0.03006	0.006256	-0.016327	0.28671	-0.031586	-0.055542	-0.14496	0.47119	-0.050659	0.13473	-0.010681	0.091705	0.053711	-0.042877	-0.000458	-0.004883	0.032654	-0.02594	-0.012665	-0.007172	0.17105	-0.003357	-0.091705	0.003357	0.000153	0.004883
5.984	0.005341	-0.005646	-0.14526	-0.005341	-0.028381	-0.23254	-0.095673	0.007019	-0.026398	0.41351	-0.008087	0.27176	-0.46722	0.074615	-0.076904	0.7222	-0.011902	0.090942	0.19943	-0.11871	-0.00473	-0.023193	0.024567	-0.042267	-0.037842	-0.007172	0.28824	-0.008698	-0.15472	0.048981	0.005798	0.005646
5.985	0.012512	-0.027466	-0.15198	0.006714	0.072174	-0.13214	-0.10468	0.014648	0.050201	0.21668	-0.001984	-0.072937	-0.48202	-0.33966	0.10315	-0.061188	-0.007019	0.028992	0.16113	-0.11673	0.008698	-0.023651	0.027618	-0.066986	-0.018005	-0.020142	0.17914	-0.006561	-0.010071	0.038757	-0.001831	0.009918
5.986	-0.000916	-0.020294	-0.098267	0.017242	0.10574	-0.042267	-0.082855	0.005646	0.14313	-0.16083	-0.019073	-0.042572	-0.08194	-0.97336	-0.072479	-0.63004	-0.004425	0.016022	0.071259	-0.13565	-0.001678	-0.031738	0.014343	-0.076294	-0.032349	-0.020447	0.29129	-0.004425	0.005798	0.061646	-0.00061	0.00946
5.987	-0.010529	0.018158	0.1532	0.003815	0.014191	0.054474	-0.1033	-0.012054	0.22964	-0.013428	-0.019073	-0.072479	0.21957	-0.50507	-0.039215	-0.24719	0.019073	0.045624	0.1152	-0.12177	-0.018768	-0.040131	0.011292	-0.054169	-0.024872	-0.011139	0.58533	-0.000763	-0.005188	-0.060883	-0.000305	0.009918
5.988	-0.005951	-0.005646	0.13702	0.003357	-0.00351	-0.068512	-0.060577	-0.001526	0.22492	0.073395	-0.041351	-0.057526	0.45914	0.1236	0.060272	0.10498	0.005646	0.008545	0.086365	-0.06546	-0.024414	-0.032349	0.025024	-0.042572	-0.002899	0.009308	0.46463	-0.000458	0.14816	-0.18478	-0.00351	0.021057
5.989	-0.014954	-0.007629	-0.009613	-0.002899	0.036163	-0.14969	-0.001984	0.005341	0.17517	-0.054321	-0.028381	0.022278	0.23285	-0.21118	0.027161	0.34698	0.000458	0.041962	0.17303	0.000305	-0.021362	-0.035553	0.028687	-0.046387	-0.003204	0.008698	-0.19424	-0.001221	-0.052643	-0.18219	0.000763	0.017395
5.99	-0.012817	-0.021362	0.066223	-0.019379	0.036163	-0.19379	0.0383	0.007172	0.055389	-0.053864	-0.017548	-0.06546	0.084076	-0.495	0.070496	-0.037079	0.020752	0.055237	0.2124	0.10071	-0.019684	-0.027313	-0.000153	-0.032043	-0.005951	-0.000153	-0.17944	-0.006409	-0.37308	-0.12146	-0.001526	0.014648
5.991	-0.009766	-0.001068	0.016174	0.012512	0.009308	-0.27145	0.051727	-0.001678	-0.10025	0.13825	-0.018311	0.1268	-0.027008	-0.81909	0.023651	-0.13458	0.019531	0.025635	0.14679	0.17929	-0.012512	-0.033875	-0.010376	-0.035706	-0.010834	-0.002441	0.058441	-0.005341	-0.33585	-0.068207	0.006866	0.005798
5.992	0.01358	0.027618	-0.054626	0.012665	-0.057678	-0.13321	0.078583	-0.002289	-0.18326	0.39108	-0.016785	0.045624	0.032196	-0.71991	-0.004272	-0.044708	0.030823	-0.001984	-0.012817	0.12299	-0.022888	-0.029602	-0.000153	-0.059967	-0.011292	-0.005188	0.017395	-0.00351	-0.13367	-0.025024	-0.002899	0.015106
